<svg xmlns="http://www.w3.org/2000/svg" viewBox="0 0 512 512">
  <defs>
    <linearGradient id="bg" x1="0%" y1="0%" x2="100%" y2="100%">
      <stop offset="0%" style="stop-color:#4f46e5"/>
      <stop offset="100%" style="stop-color:#7c3aed"/>
    </linearGradient>
  </defs>
  <rect fill="url(#bg)" width="512" height="512" rx="100"/>
  <g fill="white">
    <!-- Shirt/Hanger icon -->
    <path d="M256 120c-30 0-55 25-55 55v20h-60l-30 60v137c0 15 12 28 28 28h234c15 0 28-12 28-28V255l-30-60h-60v-20c0-30-25-55-55-55zm0 30c14 0 25 11 25 25v20h-50v-20c0-14 11-25 25-25zM141 225h230l20 40v107H121V265l20-40z"/>
    <!-- Sparkle -->
    <path d="M380 100l10 30 30 10-30 10-10 30-10-30-30-10 30-10z" opacity="0.8"/>
    <path d="M420 180l7 20 20 7-20 7-7 20-7-20-20-7 20-7z" opacity="0.6"/>
  </g>
</svg>
